{
  "accessors": [
    {
      "bufferView": 2,
      "componentType": 5126,
      "count": 65532,
      "max": [
        2.757999897003174,
        2.835900068283081,
        5.271999835968018
      ],
      "min": [
        -3.431299924850464,
        -1.7980999946594238,
        -0.06270000338554382
      ],
      "type": "VEC3"
    },
    {
      "bufferView": 2,
      "byteOffset": 786384,
      "componentType": 5126,
      "count": 65532,
      "max": [
        0.9862831234931946,
        1.0,
        1.0
      ],
      "min": [
        -1.0,
        -1.0,
        -0.9752098321914673
      ],
      "type": "VEC3"
    },
    {
      "bufferView": 1,
      "componentType": 5126,
      "count": 65532,
      "max": [
        0.9965429902076721,
        0.9977719783782959
      ],
      "min": [
        0.0022499999031424522,
        0.003379999892786145
      ],
      "type": "VEC2"
    },
    {
      "bufferView": 0,
      "componentType": 5125,
      "count": 362901,
      "type": "SCALAR"
    },
    {
      "bufferView": 2,
      "byteOffset": 1572768,
      "componentType": 5126,
      "count": 65532,
      "max": [
        2.75600004196167,
        2.7744998931884766,
        5.258699893951416
      ],
      "min": [
        -3.4124999046325684,
        -1.7973999977111816,
        0.042100001126527786
      ],
      "type": "VEC3"
    },
    {
      "bufferView": 2,
      "byteOffset": 2359152,
      "componentType": 5126,
      "count": 65532,
      "max": [
        0.9927310943603516,
        0.8539745807647705,
        0.9999995827674866
      ],
      "min": [
        -1.0,
        -1.0,
        -0.45319294929504395
      ],
      "type": "VEC3"
    },
    {
      "bufferView": 1,
      "byteOffset": 524256,
      "componentType": 5126,
      "count": 65532,
      "max": [
        0.9470580220222473,
        0.9977959990501404
      ],
      "min": [
        0.002203000010922551,
        0.05478199943900108
      ],
      "type": "VEC2"
    },
    {
      "bufferView": 0,
      "byteOffset": 1451604,
      "componentType": 5125,
      "count": 369120,
      "type": "SCALAR"
    },
    {
      "bufferView": 2,
      "byteOffset": 3145536,
      "componentType": 5126,
      "count": 10001,
      "max": [
        2.7451000213623047,
        2.784899950027466,
        5.262499809265137
      ],
      "min": [
        -3.4124999046325684,
        -1.7933000326156616,
        0.03290000185370445
      ],
      "type": "VEC3"
    },
    {
      "bufferView": 2,
      "byteOffset": 3265548,
      "componentType": 5126,
      "count": 10001,
      "max": [
        0.25990360975265503,
        0.056036122143268585,
        0.9996848702430725
      ],
      "min": [
        -0.9999995231628418,
        -1.0,
        -0.39013513922691345
      ],
      "type": "VEC3"
    },
    {
      "bufferView": 1,
      "byteOffset": 1048512,
      "componentType": 5126,
      "count": 10001,
      "max": [
        0.995652973651886,
        0.6523590087890625
      ],
      "min": [
        0.002346999943256378,
        0.0024429999757558107
      ],
      "type": "VEC2"
    },
    {
      "bufferView": 0,
      "byteOffset": 2928084,
      "componentType": 5125,
      "count": 51408,
      "type": "SCALAR"
    }
  ],
  "asset": {
    "extras": {
      "author": "manusainz (https://sketchfab.com/manusainz)",
      "license": "CC-BY-NC-SA-4.0 (http://creativecommons.org/licenses/by-nc-sa/4.0/)",
      "source": "https://sketchfab.com/3d-models/shakespeare-street-art-552ef34265fa47c7ae1457696ca0b0b9",
      "title": "Shakespeare Street Art"
    },
    "generator": "Sketchfab-12.68.0",
    "version": "2.0"
  },
  "bufferViews": [
    {
      "buffer": 0,
      "byteLength": 3133716,
      "name": "floatBufferViews",
      "target": 34963
    },
    {
      "buffer": 0,
      "byteLength": 1128520,
      "byteOffset": 3133716,
      "byteStride": 8,
      "name": "floatBufferViews",
      "target": 34962
    },
    {
      "buffer": 0,
      "byteLength": 3385560,
      "byteOffset": 4262236,
      "byteStride": 12,
      "name": "floatBufferViews",
      "target": 34962
    }
  ],
  "buffers": [
    {
      "byteLength": 7647796,
      "uri": "scene.bin"
    }
  ],
  "extensionsUsed": [
    "KHR_materials_unlit"
  ],
  "images": [
    {
      "uri": "textures/main_baseColor.jpeg"
    }
  ],
  "materials": [
    {
      "doubleSided": true,
      "extensions": {
        "KHR_materials_unlit": {}
      },
      "name": "main",
      "pbrMetallicRoughness": {
        "baseColorTexture": {
          "index": 0
        },
        "metallicFactor": 0.0
      }
    }
  ],
  "meshes": [
    {
      "name": "Object_0",
      "primitives": [
        {
          "attributes": {
            "NORMAL": 1,
            "POSITION": 0,
            "TEXCOORD_0": 2
          },
          "indices": 3,
          "material": 0,
          "mode": 4
        }
      ]
    },
    {
      "name": "Object_1",
      "primitives": [
        {
          "attributes": {
            "NORMAL": 5,
            "POSITION": 4,
            "TEXCOORD_0": 6
          },
          "indices": 7,
          "material": 0,
          "mode": 4
        }
      ]
    },
    {
      "name": "Object_2",
      "primitives": [
        {
          "attributes": {
            "NORMAL": 9,
            "POSITION": 8,
            "TEXCOORD_0": 10
          },
          "indices": 11,
          "material": 0,
          "mode": 4
        }
      ]
    }
  ],
  "nodes": [
    {
      "children": [
        1
      ],
      "matrix": [
        1.0,
        0.0,
        0.0,
        0.0,
        0.0,
        2.220446049250313e-16,
        -1.0,
        0.0,
        0.0,
        1.0,
        2.220446049250313e-16,
        0.0,
        0.0,
        0.0,
        0.0,
        1.0
      ],
      "name": "Sketchfab_model"
    },
    {
      "children": [
        2,
        3,
        4
      ],
      "name": "scaniverse-20210509-143348.obj.cleaner.materialmerger.gles"
    },
    {
      "mesh": 0,
      "name": "Object_2"
    },
    {
      "mesh": 1,
      "name": "Object_3"
    },
    {
      "mesh": 2,
      "name": "Object_4"
    }
  ],
  "samplers": [
    {
      "magFilter": 9729,
      "minFilter": 9987,
      "wrapS": 10497,
      "wrapT": 10497
    }
  ],
  "scene": 0,
  "scenes": [
    {
      "name": "Sketchfab_Scene",
      "nodes": [
        0
      ]
    }
  ],
  "textures": [
    {
      "sampler": 0,
      "source": 0
    }
  ]
}
